<mxfile host="app.diagrams.net" agent="Mozilla/5.0 (Windows NT 10.0; Win64; x64) AppleWebKit/537.36 (KHTML, like Gecko) Chrome/136.0.0.0 Safari/537.36 Edg/136.0.0.0" version="26.3.0">
  <diagram name="第 1 页" id="9ACHgg38yF2o1xzXGCEI">
    <mxGraphModel dx="941" dy="2097" grid="1" gridSize="10" guides="1" tooltips="1" connect="1" arrows="1" fold="1" page="1" pageScale="1" pageWidth="827" pageHeight="1169" background="#ffffff" math="0" shadow="0">
      <root>
        <mxCell id="0" />
        <mxCell id="1" parent="0" />
        <mxCell id="sLAiR8rVIHXtx2jw0MG2-42" value="" style="rounded=1;whiteSpace=wrap;html=1;dashed=1;fillColor=#fff2cc;strokeColor=#d6b656;" vertex="1" parent="1">
          <mxGeometry x="155" y="-10" width="755" height="520" as="geometry" />
        </mxCell>
        <mxCell id="sLAiR8rVIHXtx2jw0MG2-40" value="" style="rounded=0;whiteSpace=wrap;html=1;fillColor=#b0e3e6;strokeColor=#0e8088;" vertex="1" parent="1">
          <mxGeometry x="640" y="50" width="250" height="430" as="geometry" />
        </mxCell>
        <mxCell id="sLAiR8rVIHXtx2jw0MG2-41" value="&lt;font style=&quot;font-size: 24px;&quot;&gt;输入门&lt;/font&gt;" style="text;html=1;align=center;verticalAlign=middle;whiteSpace=wrap;rounded=0;" vertex="1" parent="1">
          <mxGeometry x="710" y="65" width="110" height="30" as="geometry" />
        </mxCell>
        <mxCell id="sLAiR8rVIHXtx2jw0MG2-38" value="" style="rounded=0;whiteSpace=wrap;html=1;fillColor=#d5e8d4;strokeColor=#82b366;" vertex="1" parent="1">
          <mxGeometry x="330" y="50" width="290" height="430" as="geometry" />
        </mxCell>
        <mxCell id="sLAiR8rVIHXtx2jw0MG2-39" value="&lt;font style=&quot;font-size: 24px;&quot;&gt;输入门&lt;/font&gt;" style="text;html=1;align=center;verticalAlign=middle;whiteSpace=wrap;rounded=0;" vertex="1" parent="1">
          <mxGeometry x="420" y="60" width="110" height="30" as="geometry" />
        </mxCell>
        <mxCell id="sLAiR8rVIHXtx2jw0MG2-36" value="" style="rounded=0;whiteSpace=wrap;html=1;fillColor=#dae8fc;strokeColor=#6c8ebf;" vertex="1" parent="1">
          <mxGeometry x="180" y="50" width="140" height="430" as="geometry" />
        </mxCell>
        <mxCell id="sLAiR8rVIHXtx2jw0MG2-16" style="edgeStyle=orthogonalEdgeStyle;rounded=0;orthogonalLoop=1;jettySize=auto;html=1;exitX=1;exitY=0.5;exitDx=0;exitDy=0;entryX=0.5;entryY=1;entryDx=0;entryDy=0;" edge="1" parent="1" source="sLAiR8rVIHXtx2jw0MG2-1" target="sLAiR8rVIHXtx2jw0MG2-3">
          <mxGeometry relative="1" as="geometry" />
        </mxCell>
        <mxCell id="sLAiR8rVIHXtx2jw0MG2-17" style="edgeStyle=orthogonalEdgeStyle;rounded=0;orthogonalLoop=1;jettySize=auto;html=1;entryX=0.5;entryY=1;entryDx=0;entryDy=0;" edge="1" parent="1" source="sLAiR8rVIHXtx2jw0MG2-1" target="sLAiR8rVIHXtx2jw0MG2-4">
          <mxGeometry relative="1" as="geometry" />
        </mxCell>
        <mxCell id="sLAiR8rVIHXtx2jw0MG2-18" style="edgeStyle=orthogonalEdgeStyle;rounded=0;orthogonalLoop=1;jettySize=auto;html=1;entryX=0.5;entryY=1;entryDx=0;entryDy=0;" edge="1" parent="1" source="sLAiR8rVIHXtx2jw0MG2-1" target="sLAiR8rVIHXtx2jw0MG2-5">
          <mxGeometry relative="1" as="geometry" />
        </mxCell>
        <mxCell id="sLAiR8rVIHXtx2jw0MG2-19" style="edgeStyle=orthogonalEdgeStyle;rounded=0;orthogonalLoop=1;jettySize=auto;html=1;entryX=0.5;entryY=1;entryDx=0;entryDy=0;" edge="1" parent="1" source="sLAiR8rVIHXtx2jw0MG2-1" target="sLAiR8rVIHXtx2jw0MG2-6">
          <mxGeometry relative="1" as="geometry" />
        </mxCell>
        <mxCell id="sLAiR8rVIHXtx2jw0MG2-1" value="&lt;font style=&quot;font-size: 24px;&quot;&gt;h&lt;sub&gt;t-1&lt;/sub&gt;&lt;/font&gt;" style="rounded=0;whiteSpace=wrap;html=1;" vertex="1" parent="1">
          <mxGeometry x="30" y="420" width="120" height="60" as="geometry" />
        </mxCell>
        <mxCell id="sLAiR8rVIHXtx2jw0MG2-23" style="edgeStyle=orthogonalEdgeStyle;rounded=0;orthogonalLoop=1;jettySize=auto;html=1;" edge="1" parent="1" source="sLAiR8rVIHXtx2jw0MG2-2" target="sLAiR8rVIHXtx2jw0MG2-7">
          <mxGeometry relative="1" as="geometry" />
        </mxCell>
        <mxCell id="sLAiR8rVIHXtx2jw0MG2-2" value="&lt;font style=&quot;font-size: 24px;&quot;&gt;C&lt;sub&gt;t-1&lt;/sub&gt;&lt;/font&gt;" style="rounded=0;whiteSpace=wrap;html=1;" vertex="1" parent="1">
          <mxGeometry x="30" y="90" width="120" height="60" as="geometry" />
        </mxCell>
        <mxCell id="sLAiR8rVIHXtx2jw0MG2-24" style="edgeStyle=orthogonalEdgeStyle;rounded=0;orthogonalLoop=1;jettySize=auto;html=1;entryX=0.5;entryY=1;entryDx=0;entryDy=0;" edge="1" parent="1" source="sLAiR8rVIHXtx2jw0MG2-3" target="sLAiR8rVIHXtx2jw0MG2-7">
          <mxGeometry relative="1" as="geometry" />
        </mxCell>
        <mxCell id="sLAiR8rVIHXtx2jw0MG2-3" value="&lt;span style=&quot;font-family: 等线;&quot; lang=&quot;EN-US&quot;&gt;&lt;font style=&quot;font-size: 24px;&quot;&gt;σ&lt;/font&gt;&lt;/span&gt;" style="rounded=0;whiteSpace=wrap;html=1;" vertex="1" parent="1">
          <mxGeometry x="190" y="320" width="120" height="60" as="geometry" />
        </mxCell>
        <mxCell id="sLAiR8rVIHXtx2jw0MG2-27" style="edgeStyle=orthogonalEdgeStyle;rounded=0;orthogonalLoop=1;jettySize=auto;html=1;entryX=0;entryY=0.5;entryDx=0;entryDy=0;exitX=0.5;exitY=0;exitDx=0;exitDy=0;" edge="1" parent="1" source="sLAiR8rVIHXtx2jw0MG2-4" target="sLAiR8rVIHXtx2jw0MG2-9">
          <mxGeometry relative="1" as="geometry">
            <mxPoint x="400" y="190" as="targetPoint" />
          </mxGeometry>
        </mxCell>
        <mxCell id="sLAiR8rVIHXtx2jw0MG2-4" value="&lt;span style=&quot;font-family: 等线; font-size: 24px;&quot;&gt;σ&lt;/span&gt;" style="rounded=0;whiteSpace=wrap;html=1;" vertex="1" parent="1">
          <mxGeometry x="340" y="320" width="120" height="60" as="geometry" />
        </mxCell>
        <mxCell id="sLAiR8rVIHXtx2jw0MG2-26" style="edgeStyle=orthogonalEdgeStyle;rounded=0;orthogonalLoop=1;jettySize=auto;html=1;entryX=0.5;entryY=1;entryDx=0;entryDy=0;" edge="1" parent="1" source="sLAiR8rVIHXtx2jw0MG2-5" target="sLAiR8rVIHXtx2jw0MG2-9">
          <mxGeometry relative="1" as="geometry" />
        </mxCell>
        <mxCell id="sLAiR8rVIHXtx2jw0MG2-5" value="&lt;span style=&quot;font-size: 24px;&quot;&gt;tanh&lt;/span&gt;" style="rounded=0;whiteSpace=wrap;html=1;" vertex="1" parent="1">
          <mxGeometry x="490" y="320" width="120" height="60" as="geometry" />
        </mxCell>
        <mxCell id="sLAiR8rVIHXtx2jw0MG2-29" style="edgeStyle=orthogonalEdgeStyle;rounded=0;orthogonalLoop=1;jettySize=auto;html=1;entryX=0;entryY=0.5;entryDx=0;entryDy=0;exitX=0.5;exitY=0;exitDx=0;exitDy=0;" edge="1" parent="1" source="sLAiR8rVIHXtx2jw0MG2-6" target="sLAiR8rVIHXtx2jw0MG2-11">
          <mxGeometry relative="1" as="geometry" />
        </mxCell>
        <mxCell id="sLAiR8rVIHXtx2jw0MG2-6" value="&lt;span style=&quot;font-family: 等线; font-size: 24px;&quot;&gt;σ&lt;/span&gt;" style="rounded=0;whiteSpace=wrap;html=1;" vertex="1" parent="1">
          <mxGeometry x="640" y="320" width="120" height="60" as="geometry" />
        </mxCell>
        <mxCell id="sLAiR8rVIHXtx2jw0MG2-25" style="edgeStyle=orthogonalEdgeStyle;rounded=0;orthogonalLoop=1;jettySize=auto;html=1;entryX=0;entryY=0.5;entryDx=0;entryDy=0;" edge="1" parent="1" source="sLAiR8rVIHXtx2jw0MG2-7" target="sLAiR8rVIHXtx2jw0MG2-8">
          <mxGeometry relative="1" as="geometry">
            <mxPoint x="520" y="120" as="targetPoint" />
          </mxGeometry>
        </mxCell>
        <mxCell id="sLAiR8rVIHXtx2jw0MG2-7" value="&lt;font style=&quot;font-size: 36px;&quot;&gt;X&lt;/font&gt;" style="ellipse;whiteSpace=wrap;html=1;aspect=fixed;" vertex="1" parent="1">
          <mxGeometry x="225" y="95" width="50" height="50" as="geometry" />
        </mxCell>
        <mxCell id="sLAiR8rVIHXtx2jw0MG2-30" style="edgeStyle=orthogonalEdgeStyle;rounded=0;orthogonalLoop=1;jettySize=auto;html=1;entryX=0;entryY=0.5;entryDx=0;entryDy=0;" edge="1" parent="1" source="sLAiR8rVIHXtx2jw0MG2-8" target="sLAiR8rVIHXtx2jw0MG2-13">
          <mxGeometry relative="1" as="geometry">
            <mxPoint x="980" y="120" as="targetPoint" />
          </mxGeometry>
        </mxCell>
        <mxCell id="sLAiR8rVIHXtx2jw0MG2-32" style="edgeStyle=orthogonalEdgeStyle;rounded=0;orthogonalLoop=1;jettySize=auto;html=1;entryX=0.5;entryY=0;entryDx=0;entryDy=0;" edge="1" parent="1" source="sLAiR8rVIHXtx2jw0MG2-8" target="sLAiR8rVIHXtx2jw0MG2-10">
          <mxGeometry relative="1" as="geometry" />
        </mxCell>
        <mxCell id="sLAiR8rVIHXtx2jw0MG2-8" value="&lt;font style=&quot;font-size: 48px;&quot;&gt;+&lt;/font&gt;" style="ellipse;whiteSpace=wrap;html=1;aspect=fixed;" vertex="1" parent="1">
          <mxGeometry x="525" y="95" width="50" height="50" as="geometry" />
        </mxCell>
        <mxCell id="sLAiR8rVIHXtx2jw0MG2-28" style="edgeStyle=orthogonalEdgeStyle;rounded=0;orthogonalLoop=1;jettySize=auto;html=1;exitX=0.5;exitY=0;exitDx=0;exitDy=0;entryX=0.5;entryY=1;entryDx=0;entryDy=0;" edge="1" parent="1" source="sLAiR8rVIHXtx2jw0MG2-9" target="sLAiR8rVIHXtx2jw0MG2-8">
          <mxGeometry relative="1" as="geometry" />
        </mxCell>
        <mxCell id="sLAiR8rVIHXtx2jw0MG2-9" value="&lt;font style=&quot;font-size: 36px;&quot;&gt;X&lt;/font&gt;" style="ellipse;whiteSpace=wrap;html=1;aspect=fixed;" vertex="1" parent="1">
          <mxGeometry x="525" y="180" width="50" height="50" as="geometry" />
        </mxCell>
        <mxCell id="sLAiR8rVIHXtx2jw0MG2-33" style="edgeStyle=orthogonalEdgeStyle;rounded=0;orthogonalLoop=1;jettySize=auto;html=1;exitX=0.5;exitY=1;exitDx=0;exitDy=0;entryX=0.5;entryY=0;entryDx=0;entryDy=0;" edge="1" parent="1" source="sLAiR8rVIHXtx2jw0MG2-10" target="sLAiR8rVIHXtx2jw0MG2-11">
          <mxGeometry relative="1" as="geometry" />
        </mxCell>
        <mxCell id="sLAiR8rVIHXtx2jw0MG2-10" value="&lt;span style=&quot;font-size: 24px;&quot;&gt;tanh&lt;/span&gt;" style="rounded=0;whiteSpace=wrap;html=1;" vertex="1" parent="1">
          <mxGeometry x="760" y="145" width="120" height="60" as="geometry" />
        </mxCell>
        <mxCell id="sLAiR8rVIHXtx2jw0MG2-34" style="edgeStyle=orthogonalEdgeStyle;rounded=0;orthogonalLoop=1;jettySize=auto;html=1;entryX=0;entryY=0.5;entryDx=0;entryDy=0;exitX=0.5;exitY=1;exitDx=0;exitDy=0;" edge="1" parent="1" source="sLAiR8rVIHXtx2jw0MG2-11" target="sLAiR8rVIHXtx2jw0MG2-12">
          <mxGeometry relative="1" as="geometry" />
        </mxCell>
        <mxCell id="sLAiR8rVIHXtx2jw0MG2-35" style="edgeStyle=orthogonalEdgeStyle;rounded=0;orthogonalLoop=1;jettySize=auto;html=1;entryX=0.5;entryY=1;entryDx=0;entryDy=0;exitX=0.5;exitY=1;exitDx=0;exitDy=0;" edge="1" parent="1" source="sLAiR8rVIHXtx2jw0MG2-11" target="sLAiR8rVIHXtx2jw0MG2-14">
          <mxGeometry relative="1" as="geometry">
            <Array as="points">
              <mxPoint x="820" y="450" />
              <mxPoint x="920" y="450" />
            </Array>
          </mxGeometry>
        </mxCell>
        <mxCell id="sLAiR8rVIHXtx2jw0MG2-11" value="&lt;font style=&quot;font-size: 36px;&quot;&gt;X&lt;/font&gt;" style="ellipse;whiteSpace=wrap;html=1;aspect=fixed;" vertex="1" parent="1">
          <mxGeometry x="795" y="240" width="50" height="50" as="geometry" />
        </mxCell>
        <mxCell id="sLAiR8rVIHXtx2jw0MG2-12" value="&lt;font style=&quot;font-size: 24px;&quot;&gt;h&lt;sub&gt;t&lt;/sub&gt;&lt;/font&gt;" style="rounded=0;whiteSpace=wrap;html=1;" vertex="1" parent="1">
          <mxGeometry x="960" y="420" width="120" height="60" as="geometry" />
        </mxCell>
        <mxCell id="sLAiR8rVIHXtx2jw0MG2-13" value="&lt;font style=&quot;font-size: 24px;&quot;&gt;C&lt;sub&gt;t&lt;/sub&gt;&lt;/font&gt;" style="rounded=0;whiteSpace=wrap;html=1;" vertex="1" parent="1">
          <mxGeometry x="960" y="90" width="120" height="60" as="geometry" />
        </mxCell>
        <mxCell id="sLAiR8rVIHXtx2jw0MG2-14" value="&lt;font style=&quot;font-size: 24px;&quot;&gt;h&lt;sub&gt;t&lt;/sub&gt;&lt;/font&gt;" style="rounded=0;whiteSpace=wrap;html=1;" vertex="1" parent="1">
          <mxGeometry x="860" y="-80" width="120" height="60" as="geometry" />
        </mxCell>
        <mxCell id="sLAiR8rVIHXtx2jw0MG2-15" value="&lt;font style=&quot;font-size: 24px;&quot;&gt;X&lt;sub&gt;t&lt;/sub&gt;&lt;/font&gt;" style="ellipse;whiteSpace=wrap;html=1;aspect=fixed;" vertex="1" parent="1">
          <mxGeometry x="190" y="530" width="50" height="50" as="geometry" />
        </mxCell>
        <mxCell id="sLAiR8rVIHXtx2jw0MG2-21" value="" style="endArrow=none;html=1;rounded=0;exitX=0.5;exitY=0;exitDx=0;exitDy=0;" edge="1" parent="1" source="sLAiR8rVIHXtx2jw0MG2-15">
          <mxGeometry width="50" height="50" relative="1" as="geometry">
            <mxPoint x="210" y="530" as="sourcePoint" />
            <mxPoint x="215" y="450" as="targetPoint" />
          </mxGeometry>
        </mxCell>
        <mxCell id="sLAiR8rVIHXtx2jw0MG2-37" value="&lt;font style=&quot;font-size: 24px;&quot;&gt;遗忘门&lt;/font&gt;" style="text;html=1;align=center;verticalAlign=middle;whiteSpace=wrap;rounded=0;" vertex="1" parent="1">
          <mxGeometry x="195" y="60" width="110" height="30" as="geometry" />
        </mxCell>
        <mxCell id="sLAiR8rVIHXtx2jw0MG2-43" value="&lt;font style=&quot;font-size: 24px;&quot;&gt;LSTM 记忆细胞&lt;/font&gt;" style="text;html=1;align=center;verticalAlign=middle;whiteSpace=wrap;rounded=0;" vertex="1" parent="1">
          <mxGeometry x="443.75" width="212.5" height="30" as="geometry" />
        </mxCell>
      </root>
    </mxGraphModel>
  </diagram>
</mxfile>
